<svg width="82" height="82" viewBox="0 0 82 82" fill="none" xmlns="http://www.w3.org/2000/svg">
<rect x="0.05" y="0.05" width="81.9" height="81.9" rx="7.95" fill="white" stroke="white" stroke-width="0.1"/>
<path fill-rule="evenodd" clip-rule="evenodd" d="M13.6875 69.64H13.88V13H12.2614C11.7181 13.2941 11.2758 13.751 11 14.3053V67.9747C11.4912 68.9618 12.5101 69.64 13.6875 69.64ZM70.1136 13H68.6075V69.64H68.6875C69.9639 69.64 71.0541 68.8429 71.4875 67.7193V14.5607C71.2294 13.8915 70.7383 13.3382 70.1136 13ZM65.7275 69.64V13H57.0875V69.64H65.7275ZM54.2075 69.64V13H42.6875V69.64H54.2075ZM36.92 69.64V13H25.4V69.64H36.92ZM19.64 69.64V13H16.76V69.64H19.64Z" fill="#202124"/>
</svg>
